<svg width="15.000000" height="16.666626" viewBox="0 0 15 16.6666" fill="none" xmlns="http://www.w3.org/2000/svg" xmlns:xlink="http://www.w3.org/1999/xlink">
	<desc>
			Created with Pixso.
	</desc>
	<defs/>
	<path id="Vector" d="M13.23 5.59L13.31 5.6C13.62 5.62 13.85 5.88 13.87 6.18L13.86 6.35L13.6 9.56L13.33 12.7C13.27 13.32 13.21 13.85 13.17 14.26C13.01 15.71 12.07 16.61 10.66 16.63C8.45 16.67 6.33 16.67 4.27 16.63C2.9 16.6 1.97 15.69 1.82 14.27L1.71 13.22L1.53 11.18L1.34 8.95L1.12 6.27C1.09 5.92 1.34 5.62 1.68 5.6C1.99 5.57 2.26 5.78 2.32 6.08L2.35 6.33L2.55 8.84L2.78 11.45C2.88 12.58 2.96 13.49 3.03 14.13C3.12 14.94 3.55 15.36 4.3 15.38C6.34 15.42 8.45 15.42 10.64 15.38C11.43 15.37 11.87 14.95 11.96 14.13L12.06 13.08C12.09 12.76 12.13 12.41 12.16 12.02L12.39 9.46L12.65 6.17C12.68 5.85 12.93 5.61 13.23 5.59ZM0.6 4.15C0.27 4.15 0 3.87 0 3.53C0 3.21 0.22 2.95 0.52 2.91L0.6 2.9L3.26 2.9C3.58 2.9 3.85 2.69 3.95 2.39L3.97 2.3L4.18 1.25C4.36 0.55 4.95 0.06 5.64 0L5.78 0L9.21 0C9.92 0 10.54 0.45 10.78 1.15L10.82 1.29L11.02 2.3C11.08 2.62 11.33 2.86 11.64 2.9L11.73 2.9L14.39 2.9C14.72 2.9 15 3.18 15 3.53C15 3.84 14.77 4.11 14.47 4.15L14.39 4.15L0.6 4.15ZM9.21 1.25L5.78 1.25C5.6 1.25 5.45 1.35 5.39 1.48L5.37 1.53L5.17 2.55C5.15 2.67 5.11 2.79 5.07 2.9L9.92 2.9C9.9 2.83 9.87 2.76 9.85 2.68L9.82 2.55L9.63 1.57C9.59 1.4 9.45 1.28 9.29 1.25L9.21 1.25Z" fill="#EA7C69" fill-opacity="1.000000" fill-rule="nonzero"/>
</svg>
