<svg width="19.999512" height="20.002930" viewBox="0 0 19.9995 20.0029" fill="none" xmlns="http://www.w3.org/2000/svg" xmlns:xlink="http://www.w3.org/1999/xlink">
	<desc>
			Created with Pixso.
	</desc>
	<defs/>
	<path id="Vector" d="M11.95 0.71L12.13 0.88L12.85 1.6C13.09 1.85 13.42 2 13.76 2.03L13.91 2.04L14.94 2.04C16.54 2.04 17.85 3.3 17.95 4.88L17.95 5.05L17.95 6.08C17.95 6.43 18.07 6.77 18.29 7.03L18.39 7.14L19.11 7.86C20.24 8.99 20.29 10.79 19.25 11.98L19.12 12.12L18.39 12.85C18.14 13.1 17.99 13.42 17.96 13.77L17.95 13.91L17.95 14.94C17.95 16.55 16.7 17.86 15.12 17.95L14.94 17.95L13.91 17.95C13.56 17.95 13.23 18.08 12.96 18.29L12.85 18.39L12.13 19.11C11 20.24 9.2 20.29 8.01 19.26L7.86 19.11L7.14 18.39C6.9 18.15 6.57 18 6.23 17.96L6.08 17.95L5.05 17.95C3.45 17.95 2.14 16.7 2.04 15.12L2.04 14.94L2.04 13.91C2.04 13.57 1.92 13.23 1.7 12.96L1.6 12.85L0.88 12.13C-0.25 11.01 -0.3 9.2 0.74 8.02L0.87 7.87L1.6 7.15C1.85 6.9 2 6.57 2.03 6.23L2.04 6.08L2.04 5.05L2.04 4.88C2.13 3.35 3.35 2.14 4.87 2.05L5.05 2.04L6.08 2.04C6.43 2.04 6.76 1.92 7.03 1.7L7.14 1.6L7.86 0.89C8.99 -0.25 10.79 -0.3 11.95 0.71ZM9.04 1.84L8.92 1.94L8.2 2.67C7.68 3.18 7 3.49 6.28 3.54L6.08 3.54L5.05 3.54C4.26 3.54 3.61 4.15 3.55 4.92L3.54 5.05L3.54 6.08C3.54 6.81 3.27 7.51 2.8 8.06L2.66 8.2L1.93 8.93C1.38 9.49 1.35 10.36 1.84 10.96L1.94 11.07L2.66 11.79C3.18 12.31 3.48 12.99 3.53 13.72L3.54 13.91L3.54 14.94C3.54 15.73 4.14 16.38 4.91 16.45L5.05 16.45L6.08 16.45C6.81 16.45 7.51 16.72 8.06 17.2L8.2 17.33L8.93 18.05C9.48 18.61 10.36 18.64 10.95 18.15L11.07 18.05L11.79 17.33C12.31 16.82 12.99 16.51 13.71 16.46L13.91 16.45L14.94 16.45C15.73 16.45 16.38 15.85 16.44 15.08L16.45 14.94L16.45 13.91C16.45 13.19 16.72 12.48 17.19 11.94L17.33 11.79L18.06 11.06C18.61 10.51 18.64 9.63 18.15 9.04L18.05 8.93L17.33 8.2C16.81 7.69 16.51 7 16.46 6.28L16.45 6.08L16.45 5.05C16.45 4.27 15.85 3.62 15.08 3.55L14.94 3.54L13.91 3.54C13.18 3.54 12.48 3.28 11.93 2.8L11.79 2.67L11.1 1.98L11.06 1.94C10.51 1.39 9.63 1.35 9.04 1.84ZM13.09 12.04C13.16 12.11 13.22 12.19 13.26 12.28C13.29 12.37 13.31 12.47 13.31 12.57C13.31 12.67 13.29 12.76 13.26 12.85C13.22 12.94 13.16 13.03 13.09 13.1C12.95 13.24 12.76 13.32 12.56 13.32C12.36 13.32 12.17 13.24 12.03 13.1C11.96 13.03 11.91 12.94 11.87 12.85C11.83 12.76 11.81 12.67 11.81 12.57C11.81 12.47 11.83 12.37 11.87 12.28C11.91 12.19 11.96 12.11 12.03 12.04C12.31 11.76 12.81 11.76 13.09 12.04ZM13.1 6.9C13.36 7.16 13.39 7.58 13.17 7.87L13.1 7.96L7.95 13.1C7.66 13.39 7.19 13.39 6.89 13.1C6.63 12.83 6.6 12.42 6.82 12.12L6.89 12.04L12.03 6.9C12.33 6.6 12.8 6.6 13.1 6.9ZM7.95 6.9C8.09 7.04 8.17 7.23 8.17 7.43C8.17 7.53 8.16 7.62 8.12 7.71C8.08 7.8 8.02 7.88 7.95 7.96C7.88 8.03 7.8 8.08 7.71 8.12C7.62 8.16 7.52 8.18 7.42 8.18C7.32 8.18 7.23 8.16 7.14 8.12C7.05 8.08 6.96 8.03 6.89 7.96C6.82 7.88 6.77 7.8 6.73 7.71C6.69 7.62 6.67 7.53 6.67 7.43C6.67 7.33 6.69 7.23 6.73 7.14C6.77 7.05 6.82 6.96 6.89 6.9C7.18 6.62 7.67 6.62 7.95 6.9Z" fill="#EA7C69" fill-opacity="1.000000" fill-rule="nonzero"/>
</svg>
