<svg width="20.000000" height="20.000000" viewBox="0 0 20 20" fill="none" xmlns="http://www.w3.org/2000/svg" xmlns:xlink="http://www.w3.org/1999/xlink">
	<desc>
			Created with Pixso.
	</desc>
	<defs>
		<clipPath id="clip97_2639">
			<rect id="Icon / Line / Edit" rx="-0.500000" width="19.000000" height="19.000000" transform="translate(0.500000 0.500000)" fill="white" fill-opacity="0"/>
		</clipPath>
	</defs>
	<rect id="Icon / Line / Edit" rx="-0.500000" width="19.000000" height="19.000000" transform="translate(0.500000 0.500000)" fill="#000000" fill-opacity="0"/>
	<g clip-path="url(#clip97_2639)">
		<path id="Vector" d="M16.95 16C17.25 16 17.5 16.24 17.5 16.54C17.5 16.81 17.29 17.04 17.02 17.07L16.95 17.08L11.22 17.08C10.92 17.08 10.67 16.84 10.67 16.54C10.67 16.27 10.88 16.04 11.15 16.01L11.22 16L16.95 16ZM11.38 3.68C12.42 2.66 14.1 2.66 15.14 3.68L16.22 4.73C17.26 5.75 17.26 7.4 16.22 8.42L8.11 16.37C7.65 16.82 7.02 17.08 6.36 17.08L3.04 17.08C2.74 17.08 2.49 16.83 2.5 16.53L2.58 13.24C2.6 12.62 2.85 12.03 3.3 11.59L11.38 3.68ZM10.75 5.81L4.08 12.35C3.83 12.6 3.68 12.93 3.68 13.27L3.61 16L6.36 16C6.69 16 7 15.89 7.25 15.69L7.34 15.61L14.04 9.04L10.75 5.81ZM14.36 4.44C13.75 3.84 12.76 3.84 12.15 4.44L11.53 5.05L14.82 8.28L15.44 7.66C16.02 7.1 16.05 6.2 15.54 5.6L15.44 5.49L14.36 4.44Z" fill="#EA7C69" fill-opacity="1.000000" fill-rule="nonzero"/>
	</g>
</svg>
