<svg width="19.000000" height="19.998047" viewBox="0 0 19 19.998" fill="none" xmlns="http://www.w3.org/2000/svg" xmlns:xlink="http://www.w3.org/1999/xlink">
	<desc>
			Created with Pixso.
	</desc>
	<defs/>
	<path id="Vector" d="M7.22 0.78C8.5 -0.23 10.28 -0.27 11.58 0.66L11.75 0.78L17.83 5.65C18.5 6.17 18.92 6.94 18.99 7.78L19 7.98L19 16.09C19 18.18 17.34 19.88 15.28 19.99L13.29 19.99C12.33 19.97 11.56 19.23 11.5 18.3L11.49 18.16L11.49 15.3C11.49 14.99 11.25 14.73 10.95 14.68L10.86 14.67L8.18 14.67C7.87 14.68 7.6 14.91 7.56 15.21L7.56 15.3L7.56 18.15C7.56 18.21 7.54 18.28 7.54 18.33L7.53 18.35L7.51 18.42C7.4 19.27 6.69 19.92 5.82 19.98L5.69 19.99L3.91 19.99C1.81 19.99 0.1 18.35 0 16.29L0 7.98C0 7.13 0.38 6.34 1 5.79L7.22 0.78ZM10.88 1.87C10.12 1.26 9.04 1.23 8.23 1.76L8.08 1.87L2 6.77C1.66 7.03 1.44 7.42 1.4 7.83L1.38 7.99L1.38 16.09C1.38 17.42 2.42 18.51 3.75 18.59L5.69 18.59C5.92 18.59 6.1 18.44 6.13 18.23L6.16 18.05L6.17 18L6.17 15.3C6.17 14.23 6.98 13.36 8.04 13.28L10.86 13.28C11.92 13.28 12.79 14.1 12.88 15.15L12.88 18.16C12.88 18.37 13.03 18.55 13.23 18.59L15.08 18.59C16.42 18.59 17.51 17.56 17.59 16.25L17.61 16.09L17.61 7.99C17.59 7.56 17.42 7.16 17.11 6.86L16.98 6.75L10.88 1.87Z" fill="#EA7C69" fill-opacity="1.000000" fill-rule="nonzero"/>
</svg>
