<svg width="20.537476" height="20.000000" viewBox="0 0 20.5375 20" fill="none" xmlns="http://www.w3.org/2000/svg" xmlns:xlink="http://www.w3.org/1999/xlink">
	<desc>
			Created with Pixso.
	</desc>
	<defs/>
	<path id="Vector" d="M9.3 0C11.68 0 13.63 1.87 13.73 4.22L13.74 4.43L13.74 5.36C13.74 5.78 13.4 6.11 12.99 6.11C12.61 6.11 12.3 5.83 12.25 5.46L12.24 5.36L12.24 4.43C12.24 2.87 11.02 1.59 9.48 1.5L9.3 1.5L4.43 1.5C2.87 1.5 1.59 2.72 1.5 4.26L1.5 4.43L1.5 15.56C1.5 17.12 2.72 18.4 4.26 18.49L4.43 18.5L9.31 18.5C10.87 18.5 12.15 17.28 12.23 15.74L12.24 15.57L12.24 14.63C12.24 14.21 12.57 13.88 12.99 13.88C13.37 13.88 13.68 14.16 13.73 14.53L13.74 14.63L13.74 15.57C13.74 17.94 11.87 19.88 9.53 19.99L9.31 20L4.43 20C2.05 20 0.11 18.12 0 15.77L0 15.56L0 4.43C0 2.05 1.87 0.11 4.22 0L4.43 0L9.3 0ZM17.3 6.48L17.38 6.55L20.31 9.46C20.34 9.49 20.36 9.52 20.38 9.54L20.31 9.46C20.34 9.49 20.37 9.53 20.39 9.56C20.41 9.58 20.43 9.61 20.44 9.63C20.44 9.64 20.45 9.64 20.45 9.65C20.46 9.67 20.47 9.7 20.48 9.72C20.49 9.74 20.49 9.75 20.49 9.76C20.5 9.78 20.51 9.8 20.51 9.82C20.52 9.83 20.52 9.85 20.52 9.86C20.52 9.88 20.53 9.9 20.53 9.92C20.53 9.94 20.53 9.95 20.53 9.97C20.53 9.98 20.53 9.98 20.53 10L20.53 10.02C20.53 10.04 20.53 10.05 20.53 10.07L20.53 10C20.53 10.04 20.53 10.09 20.52 10.13C20.52 10.14 20.52 10.15 20.51 10.17C20.51 10.19 20.5 10.21 20.49 10.23C20.49 10.24 20.49 10.25 20.48 10.27C20.47 10.29 20.46 10.31 20.45 10.34C20.45 10.34 20.44 10.35 20.44 10.35C20.41 10.42 20.36 10.48 20.31 10.53L20.31 10.53L17.38 13.44C17.09 13.73 16.62 13.73 16.32 13.44C16.06 13.17 16.03 12.76 16.25 12.46L16.33 12.38L17.96 10.74L7.74 10.75C7.33 10.75 6.99 10.41 6.99 10C6.99 9.62 7.27 9.3 7.64 9.25L7.74 9.25L17.97 9.24L16.33 7.61C16.06 7.35 16.03 6.93 16.25 6.63L16.32 6.55C16.59 6.28 17.01 6.26 17.3 6.48Z" fill="#EA7C69" fill-opacity="1.000000" fill-rule="nonzero"/>
</svg>
