<svg width="20.000000" height="20.000000" viewBox="0 0 20 20" fill="none" xmlns="http://www.w3.org/2000/svg" xmlns:xlink="http://www.w3.org/1999/xlink">
	<desc>
			Created with Pixso.
	</desc>
	<defs>
		<clipPath id="clip89_2230">
			<rect id="Icon / Line / Option" rx="-0.500000" width="19.000000" height="19.000000" transform="translate(0.500000 0.500000)" fill="white" fill-opacity="0"/>
		</clipPath>
	</defs>
	<rect id="Icon / Line / Option" rx="-0.500000" width="19.000000" height="19.000000" transform="translate(0.500000 0.500000)" fill="#000000" fill-opacity="0"/>
	<g clip-path="url(#clip89_2230)">
		<path id="Vector" d="M15.19 11.72C16.92 11.72 18.33 13.11 18.33 14.82C18.33 16.52 16.92 17.91 15.19 17.91C13.46 17.91 12.06 16.52 12.06 14.82C12.06 13.11 13.46 11.72 15.19 11.72ZM15.19 13.17C14.27 13.17 13.53 13.91 13.53 14.82C13.53 15.72 14.27 16.46 15.19 16.46C16.11 16.46 16.86 15.72 16.86 14.82C16.86 13.91 16.11 13.17 15.19 13.17ZM8.43 14.09C8.83 14.09 9.16 14.42 9.16 14.82C9.16 15.22 8.83 15.54 8.43 15.54L2.4 15.54C1.99 15.54 1.66 15.22 1.66 14.82C1.66 14.42 1.99 14.09 2.4 14.09L8.43 14.09ZM4.8 2.08C6.53 2.08 7.93 3.47 7.93 5.17C7.93 6.88 6.53 8.27 4.8 8.27C3.07 8.27 1.66 6.88 1.66 5.17C1.66 3.47 3.07 2.08 4.8 2.08ZM4.8 3.53C3.88 3.53 3.13 4.27 3.13 5.17C3.13 6.08 3.88 6.82 4.8 6.82C5.72 6.82 6.46 6.08 6.46 5.17C6.46 4.27 5.72 3.53 4.8 3.53ZM17.59 4.45C18 4.45 18.33 4.77 18.33 5.17C18.33 5.57 18 5.9 17.59 5.9L11.56 5.9C11.16 5.9 10.83 5.57 10.83 5.17C10.83 4.77 11.16 4.45 11.56 4.45L17.59 4.45Z" fill="#FFFFFF" fill-opacity="1.000000" fill-rule="nonzero"/>
	</g>
</svg>
