<svg width="20.000000" height="18.000000" viewBox="0 0 20 18" fill="none" xmlns="http://www.w3.org/2000/svg" xmlns:xlink="http://www.w3.org/1999/xlink">
	<desc>
			Created with Pixso.
	</desc>
	<defs/>
	<path id="Vector" d="M14.52 0C16.03 0.01 17.48 0.65 18.51 1.77C19.54 2.88 20.07 4.38 19.99 5.85L19.98 12.09C20.07 13.61 19.54 15.11 18.51 16.22C17.48 17.34 16.03 17.98 14.51 18L5.45 18C2.28 18 0 15.43 0 12.14L0 5.85C0 2.56 2.28 0 5.45 0L14.52 0ZM14.5 1.52L5.45 1.52C3.16 1.52 1.51 3.37 1.51 5.85L1.51 12.14C1.51 14.62 3.16 16.47 5.45 16.47L14.5 16.47C15.6 16.45 16.65 15.99 17.4 15.18C18.15 14.37 18.53 13.29 18.47 12.14L18.47 5.81C18.53 4.7 18.15 3.62 17.4 2.81C16.65 2 15.6 1.54 14.5 1.52ZM16.02 5.63C16.26 5.93 16.24 6.36 15.98 6.63L15.9 6.71L11.79 10.02C10.8 10.8 9.42 10.84 8.38 10.13L8.22 10.01L4.08 6.71C3.75 6.45 3.7 5.97 3.96 5.64C4.2 5.34 4.61 5.26 4.93 5.45L5.03 5.51L9.15 8.81C9.62 9.18 10.25 9.2 10.74 8.9L10.85 8.82L14.95 5.51C15.28 5.25 15.76 5.3 16.02 5.63Z" fill="#EA7C69" fill-opacity="1.000000" fill-rule="nonzero"/>
</svg>
