<svg width="16.000000" height="16.000000" viewBox="0 0 16 16" fill="none" xmlns="http://www.w3.org/2000/svg" xmlns:xlink="http://www.w3.org/1999/xlink">
	<desc>
			Created with Pixso.
	</desc>
	<defs>
		<clipPath id="clip85_3336">
			<rect id="Icon / Line / Security" rx="-0.500000" width="15.000000" height="15.000000" transform="translate(0.500000 0.500000)" fill="white" fill-opacity="0"/>
		</clipPath>
	</defs>
	<rect id="Icon / Line / Security" rx="-0.500000" width="15.000000" height="15.000000" transform="translate(0.500000 0.500000)" fill="#000000" fill-opacity="0"/>
	<g clip-path="url(#clip85_3336)">
		<path id="Vector" d="M8 1.33C9.54 1.33 10.9 2.29 11.4 3.71C11.49 3.97 11.35 4.25 11.08 4.34C10.82 4.43 10.53 4.29 10.44 4.03C10.08 3.02 9.11 2.33 8 2.33C6.62 2.32 5.49 3.38 5.42 4.72L5.41 4.85L5.41 5.75L10.58 5.75C12.24 5.75 13.58 7.03 13.66 8.63L13.66 8.77L13.66 11.63C13.66 13.31 12.28 14.66 10.58 14.66L5.41 14.66C3.71 14.66 2.33 13.31 2.33 11.63L2.33 8.77C2.33 7.45 3.19 6.32 4.4 5.91L4.4 4.85C4.41 2.9 6.02 1.32 8 1.33ZM10.58 6.75L5.41 6.75C4.27 6.75 3.35 7.65 3.35 8.77L3.35 11.63C3.35 12.75 4.27 13.66 5.41 13.66L10.58 13.66C11.72 13.66 12.65 12.75 12.65 11.63L12.65 8.77C12.65 7.65 11.72 6.75 10.58 6.75ZM8 8.96C8.25 8.96 8.47 9.15 8.5 9.4L8.5 9.46L8.5 10.94C8.5 11.22 8.28 11.44 8 11.44C7.74 11.44 7.53 11.26 7.49 11.01L7.49 10.94L7.49 9.46C7.49 9.19 7.71 8.96 8 8.96Z" fill="#ABBBC2" fill-opacity="1.000000" fill-rule="nonzero"/>
	</g>
</svg>
